:SAMPLES-PER-SECOND 30
:FULLY-SPECIFIED
:DEGREES
560
root  12.0044 38.3189 -3.8618 154.583 -71.899 -152.838
RightUpLeg  -13.9301 11.0407 14.3494
RightLeg  20.4262 -3.00571 -1.6113
RightFoot  -6.38152 0.192117 -5.44166
RightToes  9.54606e-009 0 -3.6325e-017
Spine  -6.72899 8.29492 20.561
Spine1  16.3639 8.87052 -3.82883
HEad  11.6474 -2.90738 -23.4345
LeftShoulder1  -0.582563 5.02652 -32.114
LeftArm  4.61142 3.17647 -42.9113
LeftForeArm  38.1612 -8.09016 -11.1149
LeftHand  -0.135069 9.88207 -1.95701
RightShoulder  -0.753843 -5.76096 26.751
RightArm  30.3028 1.72189 45.757
RightForeArm  6.14263 20.6382 4.99414
RightHand  -0.148621 6.18138 -1.82388
LeftUpLeg  -12.2351 17.1141 14.9446
LeftLeg  64.3906 -3.27883 -6.80084
LeftFoot  3.90022 0.753098 -5.79179
LeftToes  -8.26734e-010 9.74065e-011 1.64617e-011
561
root  10.8697 38.6159 -3.88477 159.618 -72.2752 -158.458
RightUpLeg  -10.9909 8.25597 12.5117
RightLeg  19.2106 -0.0731643 -0.837391
RightFoot  -7.70259 0.12605 -5.58652
RightToes  9.54606e-009 0 -3.6325e-017
Spine  -5.82867 8.54179 20.4613
Spine1  15.9356 9.90437 -5.6034
HEad  11.4583 -3.24319 -23.0721
LeftShoulder1  -0.618998 5.09719 -32.6955
LeftArm  2.40038 7.58798 -41.3136
LeftForeArm  39.1219 -7.27412 -10.8843
LeftHand  -0.205134 10.8086 -3.00982
RightShoulder  -0.866877 -6.07089 27.1793
RightArm  23.3849 3.8988 46.8233
RightForeArm  7.49921 20.4572 4.7462
RightHand  -0.182328 6.07785 -2.18131
LeftUpLeg  -15.8559 15.3757 12.3035
LeftLeg  62.6329 -3.03897 -5.76197
LeftFoot  2.0343 0.50609 -4.42258
LeftToes  -8.26734e-010 9.74065e-011 1.64617e-011
562
root  9.72877 38.8487 -3.94051 163.861 -72.6808 -163.132
RightUpLeg  -8.20743 5.19573 10.775
RightLeg  17.9614 2.80455 -0.314817
RightFoot  -8.95408 0.054967 -5.55686
RightToes  9.54606e-009 0 -3.6325e-017
Spine  -4.91982 8.66275 20.2275
Spine1  15.0413 10.6613 -7.28745
HEad  11.6707 -3.61217 -22.9349
LeftShoulder1  -0.666258 5.20862 -32.9256
LeftArm  1.1618 12.2607 -39.8996
LeftForeArm  38.6222 -7.39433 -10.4301
LeftHand  -0.179792 10.446 -2.70569
RightShoulder  -0.915047 -6.1875 27.5229
RightArm  16.8676 5.49964 47.8506
RightForeArm  8.30366 20.5264 4.47745
RightHand  -0.263106 5.74197 -3.05977
LeftUpLeg  -18.9956 13.556 10.1268
LeftLeg  58.6656 -3.1687 -5.06782
LeftFoot  0.220868 0.347026 -3.4424
LeftToes  -8.26734e-010 9.74065e-011 1.64617e-011
563
root  8.56007 39.0414 -4.01744 167.485 -72.6245 -167.241
RightUpLeg  -5.06541 2.57371 9.11823
RightLeg  16.3011 5.85482 0.186583
RightFoot  -10.0379 -0.00301717 -5.60236
RightToes  9.54606e-009 0 -3.6325e-017
Spine  -4.09808 8.94482 19.9062
Spine1  14.4378 11.3879 -8.63064
HEad  5.41301 -2.42285 -18.4729
LeftShoulder1  -0.684031 5.24893 -33.0384
LeftArm  -0.127297 16.3765 -38.8919
LeftForeArm  38.3741 -7.24745 -10.0248
LeftHand  -0.186289 11.0179 -2.47474
RightShoulder  -0.952236 -6.28974 27.6179
RightArm  12.963 7.09028 48.6176
RightForeArm  8.18567 21.1279 4.34434
RightHand  -0.336707 6.07393 -3.73627
LeftUpLeg  -20.9173 12.5366 8.52651
LeftLeg  52.459 -3.63152 -4.59548
LeftFoot  -0.910249 0.252035 -2.71351
LeftToes  -8.26734e-010 9.74065e-011 1.64617e-011
564
root  7.40353 39.1661 -4.09799 169.764 -72.6963 -169.616
RightUpLeg  -2.21485 0.557641 7.83198
RightLeg  14.4173 8.07036 0.278858
RightFoot  -11.0763 -0.0635571 -5.20149
RightToes  9.54606e-009 0 -3.6325e-017
Spine  -3.90709 9.19297 19.8604
Spine1  14.2346 11.9449 -9.9394
HEad  -15.2659 1.72449 -2.96985
LeftShoulder1  -0.696084 5.28304 -32.9621
LeftArm  -1.47781 19.7579 -38.2023
LeftForeArm  38.7663 -6.87072 -9.58215
LeftHand  -0.258042 10.968 -3.93561
RightShoulder  -0.951287 -6.29562 27.51
RightArm  13.075 8.8328 49.0707
RightForeArm  9.14861 22.3826 4.39446
RightHand  -0.392695 6.04424 -4.31315
LeftUpLeg  -22.3853 11.9116 7.3953
LeftLeg  44.3458 -4.19295 -3.99184
LeftFoot  -1.6097 0.252997 -2.86203
LeftToes  -8.26734e-010 9.74065e-011 1.64617e-011
565
root  6.23059 39.243 -4.14838 171.5 -73.4383 -171.08
RightUpLeg  0.347623 -1.37022 6.51667
RightLeg  12.381 9.43747 0.268888
RightFoot  -11.858 -0.102953 -5.27017
RightToes  9.54606e-009 0 -3.6325e-017
Spine  -4.25636 9.12694 19.7562
Spine1  14.0141 12.0822 -11.2989
HEad  -13.6788 1.38802 -4.26735
LeftShoulder1  -0.67248 5.23721 -32.6414
LeftArm  -2.5134 22.7539 -37.7287
LeftForeArm  39.0162 -6.68014 -9.1321
LeftHand  -0.267385 10.7456 -4.37315
RightShoulder  -0.945056 -6.28738 27.3847
RightArm  15.9532 10.3548 49.1096
RightForeArm  11.1833 24.2875 4.60347
RightHand  -0.392785 5.76033 -4.40725
LeftUpLeg  -23.5161 10.8648 6.11871
LeftLeg  34.644 -4.78721 -3.18162
LeftFoot  -1.09387 0.290844 -3.15232
LeftToes  -8.26734e-010 9.74065e-011 1.64617e-011
